<svg height="2702" width="720" xmlns="http://www.w3.org/2000/svg">
<rect height="2702" fill="#555" width="720"></rect>
<text fill="#7f7" font-family="Courier New" font-size="12" xml:space="preserve">
<tspan x="10" y="26">32 megabytes installed</tspan>
<tspan x="10" y="42"></tspan>
<tspan x="10" y="58">node_modules</tspan>
<tspan x="10" y="74">└─┬ mailgen@2.0.2 </tspan>
<tspan x="10" y="90">  ├── ejs@2.5.6 </tspan>
<tspan x="10" y="106">  └─┬ juice@2.0.0 </tspan>
<tspan x="10" y="122">    ├── batch@0.5.3 </tspan>
<tspan x="10" y="138">    ├─┬ cheerio@0.20.0 </tspan>
<tspan x="10" y="154">    │ ├─┬ css-select@1.2.0 </tspan>
<tspan x="10" y="170">    │ │ ├── boolbase@1.0.0 </tspan>
<tspan x="10" y="186">    │ │ ├── css-what@2.1.0 </tspan>
<tspan x="10" y="202">    │ │ ├── domutils@1.5.1 </tspan>
<tspan x="10" y="218">    │ │ └── nth-check@1.0.1 </tspan>
<tspan x="10" y="234">    │ ├─┬ dom-serializer@0.1.0 </tspan>
<tspan x="10" y="250">    │ │ └── domelementtype@1.1.3 </tspan>
<tspan x="10" y="266">    │ ├── entities@1.1.1 </tspan>
<tspan x="10" y="282">    │ ├─┬ htmlparser2@3.8.3 </tspan>
<tspan x="10" y="298">    │ │ ├── domelementtype@1.3.0 </tspan>
<tspan x="10" y="314">    │ │ ├── domhandler@2.3.0 </tspan>
<tspan x="10" y="330">    │ │ ├── entities@1.0.0 </tspan>
<tspan x="10" y="346">    │ │ └─┬ readable-stream@1.1.14 </tspan>
<tspan x="10" y="362">    │ │   ├── core-util-is@1.0.2 </tspan>
<tspan x="10" y="378">    │ │   ├── isarray@0.0.1 </tspan>
<tspan x="10" y="394">    │ │   └── string_decoder@0.10.31 </tspan>
<tspan x="10" y="410">    │ ├─┬ jsdom@7.2.2 </tspan>
<tspan x="10" y="426">    │ │ ├── abab@1.0.3 </tspan>
<tspan x="10" y="442">    │ │ ├── acorn@2.7.0 </tspan>
<tspan x="10" y="458">    │ │ ├── acorn-globals@1.0.9 </tspan>
<tspan x="10" y="474">    │ │ ├── cssstyle@0.2.37 </tspan>
<tspan x="10" y="490">    │ │ ├─┬ escodegen@1.8.1 </tspan>
<tspan x="10" y="506">    │ │ │ ├── esprima@2.7.3 </tspan>
<tspan x="10" y="522">    │ │ │ ├── estraverse@1.9.3 </tspan>
<tspan x="10" y="538">    │ │ │ ├── esutils@2.0.2 </tspan>
<tspan x="10" y="554">    │ │ │ ├─┬ optionator@0.8.2 </tspan>
<tspan x="10" y="570">    │ │ │ │ ├── deep-is@0.1.3 </tspan>
<tspan x="10" y="586">    │ │ │ │ ├── fast-levenshtein@2.0.6 </tspan>
<tspan x="10" y="602">    │ │ │ │ ├── levn@0.3.0 </tspan>
<tspan x="10" y="618">    │ │ │ │ ├── prelude-ls@1.1.2 </tspan>
<tspan x="10" y="634">    │ │ │ │ ├── type-check@0.3.2 </tspan>
<tspan x="10" y="650">    │ │ │ │ └── wordwrap@1.0.0 </tspan>
<tspan x="10" y="666">    │ │ │ └─┬ source-map@0.2.0 </tspan>
<tspan x="10" y="682">    │ │ │   └── amdefine@1.0.1 </tspan>
<tspan x="10" y="698">    │ │ ├── nwmatcher@1.3.9 </tspan>
<tspan x="10" y="714">    │ │ ├── parse5@1.5.1 </tspan>
<tspan x="10" y="730">    │ │ ├── sax@1.2.2 </tspan>
<tspan x="10" y="746">    │ │ ├── symbol-tree@3.2.2 </tspan>
<tspan x="10" y="762">    │ │ ├─┬ tough-cookie@2.3.2 </tspan>
<tspan x="10" y="778">    │ │ │ └── punycode@1.4.1 </tspan>
<tspan x="10" y="794">    │ │ ├── webidl-conversions@2.0.1 </tspan>
<tspan x="10" y="810">    │ │ ├─┬ whatwg-url-compat@0.6.5 </tspan>
<tspan x="10" y="826">    │ │ │ └── tr46@0.0.3 </tspan>
<tspan x="10" y="842">    │ │ └── xml-name-validator@2.0.1 </tspan>
<tspan x="10" y="858">    │ └── lodash@4.17.4 </tspan>
<tspan x="10" y="874">    ├─┬ commander@2.9.0 </tspan>
<tspan x="10" y="890">    │ └── graceful-readlink@1.0.1 </tspan>
<tspan x="10" y="906">    ├─┬ cross-spawn-async@2.2.5 </tspan>
<tspan x="10" y="922">    │ ├─┬ lru-cache@4.0.2 </tspan>
<tspan x="10" y="938">    │ │ ├── pseudomap@1.0.2 </tspan>
<tspan x="10" y="954">    │ │ └── yallist@2.1.2 </tspan>
<tspan x="10" y="970">    │ └─┬ which@1.2.14 </tspan>
<tspan x="10" y="986">    │   └── isexe@2.0.0 </tspan>
<tspan x="10" y="1002">    ├── cssom@0.3.1 </tspan>
<tspan x="10" y="1018">    ├── deep-extend@0.4.1 </tspan>
<tspan x="10" y="1034">    ├── slick@1.12.2 </tspan>
<tspan x="10" y="1050">    └─┬ web-resource-inliner@2.0.0 </tspan>
<tspan x="10" y="1066">      ├── async@0.9.2 </tspan>
<tspan x="10" y="1082">      ├─┬ clean-css@1.1.7 </tspan>
<tspan x="10" y="1098">      │ └── commander@2.0.0 </tspan>
<tspan x="10" y="1114">      ├─┬ cli-color@0.3.3 </tspan>
<tspan x="10" y="1130">      │ ├── d@0.1.1 </tspan>
<tspan x="10" y="1146">      │ ├─┬ es5-ext@0.10.15 </tspan>
<tspan x="10" y="1162">      │ │ ├─┬ es6-iterator@2.0.1 </tspan>
<tspan x="10" y="1178">      │ │ │ └── d@1.0.0 </tspan>
<tspan x="10" y="1194">      │ │ └─┬ es6-symbol@3.1.1 </tspan>
<tspan x="10" y="1210">      │ │   └── d@1.0.0 </tspan>
<tspan x="10" y="1226">      │ ├─┬ memoizee@0.3.10 </tspan>
<tspan x="10" y="1242">      │ │ ├─┬ es6-weak-map@0.1.4 </tspan>
<tspan x="10" y="1258">      │ │ │ ├── es6-iterator@0.1.3 </tspan>
<tspan x="10" y="1274">      │ │ │ └── es6-symbol@2.0.1 </tspan>
<tspan x="10" y="1290">      │ │ ├─┬ event-emitter@0.3.5 </tspan>
<tspan x="10" y="1306">      │ │ │ └── d@1.0.0 </tspan>
<tspan x="10" y="1322">      │ │ ├── lru-queue@0.1.0 </tspan>
<tspan x="10" y="1338">      │ │ └── next-tick@0.2.2 </tspan>
<tspan x="10" y="1354">      │ └─┬ timers-ext@0.1.2 </tspan>
<tspan x="10" y="1370">      │   └── next-tick@1.0.0 </tspan>
<tspan x="10" y="1386">      ├─┬ datauri@0.2.1 </tspan>
<tspan x="10" y="1402">      │ ├── mimer@0.2.1 </tspan>
<tspan x="10" y="1418">      │ └── templayed@0.2.3 </tspan>
<tspan x="10" y="1434">      ├─┬ htmlparser2@3.9.2 </tspan>
<tspan x="10" y="1450">      │ ├── inherits@2.0.3 </tspan>
<tspan x="10" y="1466">      │ └─┬ readable-stream@2.2.9 </tspan>
<tspan x="10" y="1482">      │   ├── buffer-shims@1.0.0 </tspan>
<tspan x="10" y="1498">      │   ├── isarray@1.0.0 </tspan>
<tspan x="10" y="1514">      │   ├── process-nextick-args@1.0.7 </tspan>
<tspan x="10" y="1530">      │   ├── string_decoder@1.0.0 </tspan>
<tspan x="10" y="1546">      │   └── util-deprecate@1.0.2 </tspan>
<tspan x="10" y="1562">      ├── lodash@3.10.1 </tspan>
<tspan x="10" y="1578">      ├─┬ request@2.81.0 </tspan>
<tspan x="10" y="1594">      │ ├── aws-sign2@0.6.0 </tspan>
<tspan x="10" y="1610">      │ ├── aws4@1.6.0 </tspan>
<tspan x="10" y="1626">      │ ├── caseless@0.12.0 </tspan>
<tspan x="10" y="1642">      │ ├─┬ combined-stream@1.0.5 </tspan>
<tspan x="10" y="1658">      │ │ └── delayed-stream@1.0.0 </tspan>
<tspan x="10" y="1674">      │ ├── extend@3.0.0 </tspan>
<tspan x="10" y="1690">      │ ├── forever-agent@0.6.1 </tspan>
<tspan x="10" y="1706">      │ ├─┬ form-data@2.1.4 </tspan>
<tspan x="10" y="1722">      │ │ └── asynckit@0.4.0 </tspan>
<tspan x="10" y="1738">      │ ├─┬ har-validator@4.2.1 </tspan>
<tspan x="10" y="1754">      │ │ ├─┬ ajv@4.11.7 </tspan>
<tspan x="10" y="1770">      │ │ │ ├── co@4.6.0 </tspan>
<tspan x="10" y="1786">      │ │ │ └─┬ json-stable-stringify@1.0.1 </tspan>
<tspan x="10" y="1802">      │ │ │   └── jsonify@0.0.0 </tspan>
<tspan x="10" y="1818">      │ │ └── har-schema@1.0.5 </tspan>
<tspan x="10" y="1834">      │ ├─┬ hawk@3.1.3 </tspan>
<tspan x="10" y="1850">      │ │ ├── boom@2.10.1 </tspan>
<tspan x="10" y="1866">      │ │ ├── cryptiles@2.0.5 </tspan>
<tspan x="10" y="1882">      │ │ ├── hoek@2.16.3 </tspan>
<tspan x="10" y="1898">      │ │ └── sntp@1.0.9 </tspan>
<tspan x="10" y="1914">      │ ├─┬ http-signature@1.1.1 </tspan>
<tspan x="10" y="1930">      │ │ ├── assert-plus@0.2.0 </tspan>
<tspan x="10" y="1946">      │ │ ├─┬ jsprim@1.4.0 </tspan>
<tspan x="10" y="1962">      │ │ │ ├── assert-plus@1.0.0 </tspan>
<tspan x="10" y="1978">      │ │ │ ├── extsprintf@1.0.2 </tspan>
<tspan x="10" y="1994">      │ │ │ ├── json-schema@0.2.3 </tspan>
<tspan x="10" y="2010">      │ │ │ └── verror@1.3.6 </tspan>
<tspan x="10" y="2026">      │ │ └─┬ sshpk@1.13.0 </tspan>
<tspan x="10" y="2042">      │ │   ├── asn1@0.2.3 </tspan>
<tspan x="10" y="2058">      │ │   ├── assert-plus@1.0.0 </tspan>
<tspan x="10" y="2074">      │ │   ├── bcrypt-pbkdf@1.0.1 </tspan>
<tspan x="10" y="2090">      │ │   ├─┬ dashdash@1.14.1 </tspan>
<tspan x="10" y="2106">      │ │   │ └── assert-plus@1.0.0 </tspan>
<tspan x="10" y="2122">      │ │   ├── ecc-jsbn@0.1.1 </tspan>
<tspan x="10" y="2138">      │ │   ├─┬ getpass@0.1.6 </tspan>
<tspan x="10" y="2154">      │ │   │ └── assert-plus@1.0.0 </tspan>
<tspan x="10" y="2170">      │ │   ├── jodid25519@1.0.2 </tspan>
<tspan x="10" y="2186">      │ │   ├── jsbn@0.1.1 </tspan>
<tspan x="10" y="2202">      │ │   └── tweetnacl@0.14.5 </tspan>
<tspan x="10" y="2218">      │ ├── is-typedarray@1.0.0 </tspan>
<tspan x="10" y="2234">      │ ├── isstream@0.1.2 </tspan>
<tspan x="10" y="2250">      │ ├── json-stringify-safe@5.0.1 </tspan>
<tspan x="10" y="2266">      │ ├─┬ mime-types@2.1.15 </tspan>
<tspan x="10" y="2282">      │ │ └── mime-db@1.27.0 </tspan>
<tspan x="10" y="2298">      │ ├── oauth-sign@0.8.2 </tspan>
<tspan x="10" y="2314">      │ ├── performance-now@0.2.0 </tspan>
<tspan x="10" y="2330">      │ ├── qs@6.4.0 </tspan>
<tspan x="10" y="2346">      │ ├── safe-buffer@5.0.1 </tspan>
<tspan x="10" y="2362">      │ ├── stringstream@0.0.5 </tspan>
<tspan x="10" y="2378">      │ ├── tunnel-agent@0.6.0 </tspan>
<tspan x="10" y="2394">      │ └── uuid@3.0.1 </tspan>
<tspan x="10" y="2410">      ├─┬ uglify-js@2.8.22 </tspan>
<tspan x="10" y="2426">      │ ├── source-map@0.5.6 </tspan>
<tspan x="10" y="2442">      │ ├── uglify-to-browserify@1.0.2 </tspan>
<tspan x="10" y="2458">      │ └─┬ yargs@3.10.0 </tspan>
<tspan x="10" y="2474">      │   ├── camelcase@1.2.1 </tspan>
<tspan x="10" y="2490">      │   ├─┬ cliui@2.1.0 </tspan>
<tspan x="10" y="2506">      │   │ ├─┬ center-align@0.1.3 </tspan>
<tspan x="10" y="2522">      │   │ │ ├─┬ align-text@0.1.4 </tspan>
<tspan x="10" y="2538">      │   │ │ │ ├─┬ kind-of@3.1.0 </tspan>
<tspan x="10" y="2554">      │   │ │ │ │ └── is-buffer@1.1.5 </tspan>
<tspan x="10" y="2570">      │   │ │ │ ├── longest@1.0.1 </tspan>
<tspan x="10" y="2586">      │   │ │ │ └── repeat-string@1.6.1 </tspan>
<tspan x="10" y="2602">      │   │ │ └── lazy-cache@1.0.4 </tspan>
<tspan x="10" y="2618">      │   │ ├── right-align@0.1.3 </tspan>
<tspan x="10" y="2634">      │   │ └── wordwrap@0.0.2 </tspan>
<tspan x="10" y="2650">      │   ├── decamelize@1.2.0 </tspan>
<tspan x="10" y="2666">      │   └── window-size@0.1.0 </tspan>
<tspan x="10" y="2682">      └── xtend@4.0.1</tspan>
</text>
</svg>
